<svg xmlns="http://www.w3.org/2000/svg" width="404.837" height="112.585" viewBox="0 0 107.113 29.788"><g aria-label="معلم يار" style="font-style:normal;font-weight:400;font-size:57.9375px;line-height:1.25;font-family:sans-serif;fill:#000;fill-opacity:1;stroke:none;stroke-width:1.44845"><path d="M187.288 92.513q0-5.04 3.013-7.821 2.665-2.376 6.952-2.376 5.505 0 8.46 4.056 2.549 3.418 2.549 8.922 0 6.257-3.245 9.792-2.839 3.128-7.416 3.128-5.214 0-7.937-2.897-2.781 2.897-7.474 2.897h-4.404v-4.693h3.824q5.678 0 5.678-5.793zm4.983 5.62q0 5.388 5.272 5.388 2.723 0 4.23-2.201 1.564-2.202 1.564-6.142 0-3.882-1.622-6.025-1.623-2.202-4.462-2.202-4.982 0-4.982 5.794z" style="font-style:normal;font-variant:normal;font-weight:400;font-stretch:normal;font-family:'Tajawal Medium';-inkscape-font-specification:'Tajawal Medium, ';stroke-width:1.44845" transform="matrix(.53556 0 0 .53556 -4.425 -37.942)"/><path d="M165.967 103.521h15.296v4.693h-15.76q-3.128 0-6.199-1.216-3.07 1.216-6.257 1.216h-15.7v-4.693h16.105q-4.17-3.418-8.574-10.023v-2.55q2.78-3.997 6.605-6.314 3.882-2.318 7.763-2.318 3.882 0 7.764 2.376 3.882 2.317 6.72 6.373v2.433q-4.402 6.605-8.632 10.023zm-16.454-11.24q5.33 7.3 9.791 9.618 4.462-2.375 9.792-9.676-4.345-5.272-9.85-5.33-5.504 0-9.733 5.388z" style="font-style:normal;font-variant:normal;font-weight:400;font-stretch:normal;font-family:'Tajawal Medium';-inkscape-font-specification:'Tajawal Medium, ';stroke-width:1.44845" transform="matrix(.53556 0 0 .53556 -4.425 -37.942)"/><path d="M136.999 103.521h3.823v4.693h-4.403q-4.982 0-7.706-3.186-2.896 3.186-7.995 3.186h-3.476v-4.693h3.07q6.026 0 6.026-6.315V73.51l5.04-2.665v26.419q0 3.36 1.275 4.809 1.333 1.448 4.346 1.448z" style="font-style:normal;font-variant:normal;font-weight:400;font-stretch:normal;font-family:'Tajawal Medium';-inkscape-font-specification:'Tajawal Medium, ';stroke-width:1.44845" transform="matrix(.53556 0 0 .53556 -4.425 -37.942)"/><path d="M116.836 103.521h3.882v4.693h-4.403q-4.693 0-7.474-2.897-2.723 2.781-7.706 2.897h-7.59q-5.677 0-5.677 5.794v9.791l-4.983 2.666v-12.63q0-4.81 2.78-7.59 2.492-2.55 6.606-2.724-2.086-3.36-2.086-8.227 0-6.315 3.303-9.85 2.954-3.128 7.763-3.128 4.925 0 7.59 3.07 2.375 2.724 2.375 7.127v5.215q0 5.793 5.62 5.793zm-10.602-5.388v-5.388q0-5.794-4.983-5.794-2.897 0-4.519 2.202-1.564 2.143-1.564 6.025 0 3.94 1.506 6.142 1.506 2.201 4.23 2.201 5.33 0 5.33-5.388zM48.528 108.214v-4.693h3.824q5.678 0 5.678-5.793V85.734l4.982-2.665v14.832q0 4.925-2.954 7.764-2.723 2.55-7.127 2.55zm3.07 11.53q-2.838 0-2.838-2.897 0-2.839 2.839-2.839 2.78 0 2.78 2.839 0 2.897-2.78 2.897zm7.359 0q-2.84 0-2.84-2.897 0-2.839 2.84-2.839 2.78 0 2.78 2.839 0 2.897-2.78 2.897z" style="font-style:normal;font-variant:normal;font-weight:400;font-stretch:normal;font-family:'Tajawal Medium';-inkscape-font-specification:'Tajawal Medium, ';stroke-width:1.44845" transform="matrix(.53556 0 0 .53556 -4.425 -37.942)"/><path d="M47.601 108.214q-5.04 0-7.764-3.244-2.317-2.781-2.317-7.069V73.51l4.983-2.665v26.883q0 5.793 5.677 5.793h3.824v4.693zM27.091 105.144q0 6.489-3.418 10.428-3.245 3.766-8.633 3.766-3.476 0-6.778-1.738v-4.345q2.954 1.622 5.91 1.622 3.707 0 5.793-2.491 2.086-2.492 2.086-6.895V85.734l5.04-2.665z" style="font-style:normal;font-variant:normal;font-weight:400;font-stretch:normal;font-family:'Tajawal Medium';-inkscape-font-specification:'Tajawal Medium, ';stroke-width:1.44845" transform="matrix(.53556 0 0 .53556 -4.425 -37.942)"/></g></svg>