<?xml version="1.0" encoding="UTF-8" standalone="no"?>
<svg
   width="107.113mm"
   height="29.788mm"
   viewBox="0 0 107.113 29.788"
   version="1.1"
   id="svg1569"
   inkscape:version="1.1.2 (0a00cf5339, 2022-02-04)"
   sodipodi:docname="logoTypeWhite.svg"
   xmlns:inkscape="http://www.inkscape.org/namespaces/inkscape"
   xmlns:sodipodi="http://sodipodi.sourceforge.net/DTD/sodipodi-0.dtd"
   xmlns="http://www.w3.org/2000/svg"
   xmlns:svg="http://www.w3.org/2000/svg"
   xmlns:rdf="http://www.w3.org/1999/02/22-rdf-syntax-ns#"
   xmlns:cc="http://creativecommons.org/ns#"
   xmlns:dc="http://purl.org/dc/elements/1.1/">
  <defs
     id="defs1563" />
  <sodipodi:namedview
     id="base"
     pagecolor="#ffffff"
     bordercolor="#666666"
     borderopacity="1.0"
     inkscape:pageopacity="0.0"
     inkscape:pageshadow="2"
     inkscape:zoom="1.4"
     inkscape:cx="182.85714"
     inkscape:cy="54.285714"
     inkscape:document-units="mm"
     inkscape:current-layer="layer1"
     inkscape:document-rotation="0"
     showgrid="false"
     inkscape:window-width="1366"
     inkscape:window-height="709"
     inkscape:window-x="0"
     inkscape:window-y="27"
     inkscape:window-maximized="1"
     inkscape:pagecheckerboard="0" />
  <metadata
     id="metadata1566">
    <rdf:RDF>
      <cc:Work
         rdf:about="">
        <dc:format>image/svg+xml</dc:format>
        <dc:type
           rdf:resource="http://purl.org/dc/dcmitype/StillImage" />
      </cc:Work>
    </rdf:RDF>
  </metadata>
  <g
     inkscape:label="Layer 1"
     inkscape:groupmode="layer"
     id="layer1">
    <g
       aria-label="معلم يار"
       id="text835"
       style="font-style:normal;font-weight:normal;font-size:57.9375px;line-height:1.25;font-family:sans-serif;fill:#ffffff;fill-opacity:1;stroke:none;stroke-width:1.44845"
       transform="matrix(0.53556444,0,0,0.53556444,-4.424546,-37.941746)">
      <path
         d="m 187.2882,92.513171 q 0,-5.040563 3.01275,-7.821563 2.66512,-2.375437 6.9525,-2.375437 5.50406,0 8.45887,4.055625 2.54925,3.418312 2.54925,8.922375 0,6.257249 -3.2445,9.791439 -2.83894,3.12862 -7.416,3.12862 -5.21437,0 -7.93744,-2.89687 -2.781,2.89687 -7.47393,2.89687 h -4.40325 v -4.69293 h 3.82387 q 5.67788,0 5.67788,-5.793754 z m 4.98262,5.619937 q 0,5.388192 5.27231,5.388192 2.72307,0 4.22944,-2.20163 1.56431,-2.201624 1.56431,-6.141374 0,-3.881813 -1.62225,-6.0255 -1.62225,-2.201625 -4.46118,-2.201625 -4.98263,0 -4.98263,5.79375 z"
         style="font-style:normal;font-variant:normal;font-weight:normal;font-stretch:normal;font-family:'Tajawal Medium';-inkscape-font-specification:'Tajawal Medium, ';stroke-width:1.44845;fill:#ffffff"
         id="path896" />
      <path
         d="m 165.9672,103.5213 h 15.2955 v 4.69293 h -15.759 q -3.12862,0 -6.19931,-1.21668 -3.07069,1.21668 -6.25725,1.21668 h -15.70106 v -4.69293 h 15.2955 0.81112 q -4.1715,-3.41832 -8.57475,-10.023192 v -2.54925 q 2.781,-3.997687 6.60488,-6.315187 3.88181,-2.3175 7.76362,-2.3175 3.88181,0 7.76363,2.375437 3.88181,2.3175 6.72075,6.373125 v 2.433375 q -4.40325,6.604872 -8.63269,10.023192 z M 149.51295,92.281421 q 5.33025,7.300125 9.79144,9.617629 4.46119,-2.375442 9.79144,-9.675567 -4.34532,-5.272312 -9.84938,-5.33025 -5.50406,0 -9.7335,5.388188 z"
         style="font-style:normal;font-variant:normal;font-weight:normal;font-stretch:normal;font-family:'Tajawal Medium';-inkscape-font-specification:'Tajawal Medium, ';stroke-width:1.44845;fill:#ffffff"
         id="path898" />
      <path
         d="m 136.99855,103.5213 h 3.82387 v 4.69293 h -4.40325 q -4.98262,0 -7.70569,-3.18656 -2.89687,3.18656 -7.99537,3.18656 h -3.47625 v -4.69293 h 3.07069 q 6.0255,0 6.0255,-6.315192 V 73.509671 l 5.04056,-2.665125 v 26.4195 q 0,3.360374 1.27462,4.808814 1.33257,1.44844 4.34532,1.44844 z"
         style="font-style:normal;font-variant:normal;font-weight:normal;font-stretch:normal;font-family:'Tajawal Medium';-inkscape-font-specification:'Tajawal Medium, ';stroke-width:1.44845;fill:#ffffff"
         id="path900" />
      <path
         d="m 116.83632,103.5213 h 3.88181 v 4.69293 h -4.40325 q -4.69294,0 -7.47394,-2.89687 -2.72306,2.781 -7.70569,2.89687 h -7.589808 q -5.677875,0 -5.677875,5.79375 v 9.79144 l -4.982625,2.66513 v -12.63038 q 0,-4.80881 2.781,-7.58981 2.491313,-2.54925 6.604875,-2.72306 -2.08575,-3.36038 -2.08575,-8.227129 0,-6.315188 3.302438,-9.849375 2.954812,-3.128625 7.763625,-3.128625 4.92469,0 7.58981,3.070687 2.37544,2.723063 2.37544,7.126313 v 5.214375 q 0,5.793754 5.61994,5.793754 z m -10.60257,-5.388192 v -5.388187 q 0,-5.79375 -4.98262,-5.79375 -2.896875,0 -4.519125,2.201625 -1.564313,2.143687 -1.564313,6.0255 0,3.93975 1.506375,6.141374 1.506375,2.20163 4.229433,2.20163 5.33025,0 5.33025,-5.388192 z"
         style="font-style:normal;font-variant:normal;font-weight:normal;font-stretch:normal;font-family:'Tajawal Medium';-inkscape-font-specification:'Tajawal Medium, ';stroke-width:1.44845;fill:#ffffff"
         id="path902" />
      <path
         d="m 48.528046,108.21423 v -4.69293 h 3.823875 q 5.677875,0 5.677875,-5.793754 V 85.734483 l 4.982625,-2.665125 v 14.832 q 0,4.924692 -2.954813,7.763622 -2.723062,2.54925 -7.126312,2.54925 z m 3.070687,11.52957 q -2.838937,0 -2.838937,-2.89688 0,-2.83894 2.838937,-2.83894 2.781,0 2.781,2.83894 0,2.89688 -2.781,2.89688 z m 7.358063,0 q -2.838938,0 -2.838938,-2.89688 0,-2.83894 2.838938,-2.83894 2.781,0 2.781,2.83894 0,2.89688 -2.781,2.89688 z"
         style="font-style:normal;font-variant:normal;font-weight:normal;font-stretch:normal;font-family:'Tajawal Medium';-inkscape-font-specification:'Tajawal Medium, ';stroke-width:1.44845;fill:#ffffff"
         id="path904" />
      <path
         d="m 47.601076,108.21423 q -5.040562,0 -7.763625,-3.2445 -2.3175,-2.781 -2.3175,-7.068372 V 73.509671 l 4.982625,-2.665125 v 26.883 q 0,5.793754 5.677875,5.793754 h 3.823875 v 4.69293 z"
         style="font-style:normal;font-variant:normal;font-weight:normal;font-stretch:normal;font-family:'Tajawal Medium';-inkscape-font-specification:'Tajawal Medium, ';stroke-width:1.44845;fill:#ffffff"
         id="path906" />
      <path
         d="m 27.091251,105.14355 q 0,6.489 -3.418313,10.42875 -3.2445,3.76593 -8.632687,3.76593 -3.47625,0 -6.7786878,-1.73812 v -4.34531 q 2.9548128,1.62225 5.9096248,1.62225 3.708,0 5.79375,-2.49132 2.08575,-2.49131 2.08575,-6.89456 V 85.734483 l 5.040563,-2.665125 z"
         style="font-style:normal;font-variant:normal;font-weight:normal;font-stretch:normal;font-family:'Tajawal Medium';-inkscape-font-specification:'Tajawal Medium, ';stroke-width:1.44845;fill:#ffffff"
         id="path908" />
    </g>
  </g>
</svg>
